<?xml version="1.0" encoding="UTF-8"?><svg id="Layer_1" xmlns="http://www.w3.org/2000/svg" viewBox="0 0 639.84 340.92"><defs><style>.cls-1{fill:#c51f33;}.cls-2{fill:#fff;}</style></defs><path class="cls-1" d="M411.87,2.82c18.38-1.17,36.79-2.15,55.21-2.47,19.7-.67,39.42-.39,59.09.71,20.3,1.28,40.72,2.91,60.5,7.88,9.61,2.45,19.19,6.36,26.43,13.36,11.11,10.65,17.77,25.11,21.65,39.82,3.01,11.56,4.53,23.45,4.98,35.38.25,10.72.19,21.47-1.19,32.11-2.08,16.47-5.8,33.03-13.62,47.8-4.32,8.37-10.6,15.49-16.96,22.36-5.42-7.83-10.68-15.78-16.07-23.63,7.13-10.88,14.19-21.8,21.35-32.66,2.65-4.52,2.5-11.15-1.77-14.66-3-2.42-6.36-4.34-9.52-6.54-2.36,2.04-3.8,4.85-5.56,7.38-5.99,8.82-12.03,17.61-17.99,26.45-7.1-10.55-14.28-21.05-21.32-31.64-.76-.91-1.49-2.54-2.93-1.98-2.35,1.28-4.4,3.02-6.63,4.5-3.46,2.29-6.58,5.79-6.98,10.08-.29,3.33,1.97,6.03,3.74,8.6,7.19,10.69,14.36,21.41,21.55,32.11-11.44,15.28-27.32,28.02-46.06,32.77-12.31,3.15-25.79,1.97-37.12-3.91-6.26-3.24-11.43-8.76-13.61-15.52-1.04-3.09-1.31-6.35-1.49-9.58,12.64-.08,25.28-.02,37.91-.02,6.74.13,13.39-2.5,18.58-6.72,5.88-4.87,8.44-12.88,7.79-20.34-.92-8.66-4.49-17.19-10.8-23.31-5.47-5.37-12.91-8.4-20.43-9.42-11.86-1.73-24.27.93-34.47,7.2-8.57,5.29-15.01,13.72-18.3,23.2-3.57,10.36-4.62,21.56-3.31,32.43,1.64,12.1,6.1,24.13,14.41,33.25,6.4,7.13,14.97,12.16,24.17,14.72,8.8,2.45,18.07,3.4,27.17,2.5,18.64-2.17,36.7-9.59,51.34-21.35,6.1-4.71,11.43-10.31,16.37-16.19.4-.91,1.13.19,1.43.56,3.46,4.98,6.69,10.12,10.24,15.04.59.89,1.29,1.78,1.42,2.89-27.55,23.94-59.3,42.68-92.5,57.68-23.09,10.29-46.97,18.7-71.1,26.17-54.22,16.7-109.9,28.74-166.22,35.62-43.71,5.07-87.97,7.67-131.86,3.17-15.28-1.46-30.53-3.45-45.53-6.74-10.64-2.34-21.06-5.93-30.64-11.14-17.05-9.55-31.93-24.12-39.2-42.5-6.66-15.69-10.47-32.46-12.41-49.36-1.97-17.93-2.33-36.1.05-54.01,2.86-22.37,8.57-44.81,20.17-64.34,6.99-11.77,16.88-21.58,28.02-29.44,19.8-14.46,42.83-23.86,66.42-30.11,40.06-10.98,80.82-19.22,121.69-26.57,57.57-10.05,115.61-17.58,173.92-21.56ZM57.27,90.18c-5.97,4.69-10.59,10.84-14.51,17.29-7.65,12.76-11.52,27.47-12.9,42.19-.67,6.98-.26,14.04,1.03,20.93,2.62,17.09,9.51,33.85,21.32,46.65,9.32,9.74,22.49,14.95,35.69,16.61,4.97.79,10.06.87,15.04.08,11.84-1.4,23.25-6.1,32.75-13.28.84-.41.92-1.5.43-2.22-2.42-4.59-4.16-9.54-5.13-14.65-.23-.85-.48-2.25-1.63-2.16-1.52.67-2.79,1.76-4.2,2.6-8.63,5.15-18.59,8.59-28.75,8.04-10.5-.36-20.64-5.77-26.84-14.23-4.43-5.79-6.55-12.92-8.36-19.87-3.75-16.78-3.35-34.62,1.9-51.03,1.51-4.51,3.29-9.02,6.21-12.82,5.14-7.1,12.97-12.27,21.62-13.9,10.93-2.16,22.36.7,31.95,6.09,1.6.82,3.05,1.92,4.72,2.62,1.2-.37,1.73-1.67,2.5-2.56,2.79-4.11,5.75-8.12,8.63-12.17-1.19-2.06-3.32-3.24-5.18-4.62-11.55-7.89-25.49-12.56-39.55-12.18-13.06.59-26.27,4.55-36.72,12.58ZM168.88,122.94c-6.44,1.65-12.88,3.86-18.39,7.67-.71.52-1.8,1.18-1.33,2.24,1.14,3.13,3.14,6.09,6,7.86,4.49,3.09,10.44,2.94,15.5,1.57,5.12-2.2,10.84-2.87,16.35-2.12,6.54.86,12.59,5.91,13.8,12.52.29,2.64.07,5.31.13,7.96-8.67.02-17.35-.02-26.02.1-8.5.79-17.01,3.59-23.72,8.99-6.03,4.76-9.92,11.97-11.02,19.53-1.47,8.78.84,17.83,5.05,25.55,4.5,8.32,12.75,14.4,21.95,16.49,9.95,2.45,20.36.97,30.16-1.45,7.24-1.99,14.49-4.95,20.03-10.15,4.73-4.38,7.56-10.75,7.49-17.21.05-15.4,0-30.8.03-46.2.26-8.82-2.79-17.83-8.7-24.41-5.66-6.5-14.15-9.9-22.58-10.72-8.27-.83-16.65-.02-24.74,1.81ZM277.01,121.02c-13.18,1.91-26.27,6.87-36.23,15.91-4.83,4.62-6.19,11.7-5.88,18.13,0,19.61.01,39.22,0,58.83-.34,5.36,1.21,11.4,5.81,14.64,4.31,2.96,9.74,2.02,14.65,2.17,1.39-.07,3.96.39,3.78-1.78.06-23.61,0-47.23.02-70.84.04-4.58,1.99-9.24,5.55-12.18,4.13-3.23,9.51-4.25,14.63-4.35,4.5.13,9.15-.52,13.14-2.7,2.87-1.53,4.48-4.53,5.85-7.35,1.05-2.56,2.13-5.37,1.67-8.18-.14-1.15-1.51-1.13-2.35-1.4-6.8-1.14-13.77-2.08-20.63-.89ZM305.63,135.78c-4.73,3.71-7.02,9.81-7.1,15.7-.02,21.6,0,43.19-.01,64.79.02,4.61,1.78,9.52,5.72,12.21,2.65,1.97,6.06,2.28,9.26,2.23,2.81-.07,5.64.17,8.43-.18,1.13-.46.76-1.92.89-2.87-.04-27.47.04-54.93-.04-82.4,3.6-3.11,8.2-5.16,13-5.3,4.89-.11,10.24.6,13.98,4.06,3.73,3.36,4.86,8.61,4.9,13.44.02,19.8.01,39.61,0,59.41,0,4.79,2.27,9.8,6.56,12.2,4.3,2.42,9.4,1.42,14.1,1.64,1.34-.02,3.75.25,3.51-1.81.04-27.86.05-55.72-.01-83.58,6.17-5.72,15.61-6.77,23.27-3.75,4.27,1.82,7.26,5.94,8.07,10.47.91,5.16.58,10.44.47,15.65.14,8.4.16,16.79,0,25.19.36,5.4-.17,10.8.14,16.19.04,3.59-.34,7.2.22,10.77.82,4.61,4,9,8.62,10.33,3.74,1.08,7.68.48,11.51.65,1.2-.1,2.73.34,3.59-.76.4-1.15.22-2.39.27-3.58-.04-26.79.02-53.58-.02-80.37-.67-6.28-3.76-12.21-8.06-16.78-6.62-6.77-16.49-9.35-25.74-8.81-10.89.89-21.67,3.98-31.18,9.4-6.43-6.02-15.23-9.61-24.06-9.45-14.49,1.07-29.07,5.88-40.29,15.3Z"/><path class="cls-1" d="M474.26,146.67c4.34-4.56,10.51-7.3,16.81-7.46,4.67-.28,9.75.5,13.4,3.67,3.3,2.68,5.25,6.78,5.67,10.98.19,2.66-.98,5.39-3.08,7.04-2.63,2.1-6.1,2.76-9.39,2.76-10.02-.02-20.04,0-30.06-.01.09-6.23,2.41-12.4,6.65-16.98Z"/><path class="cls-1" d="M170.77,182.59c4.1-3.07,9.46-3.44,14.4-3.3,5.11.01,10.22,0,15.33.01-.01,9.48,0,18.95,0,28.43-5.05,3.84-11.38,6.35-17.8,5.98-4.67-.51-9.42-2.2-12.81-5.55-6.93-6.66-6.86-19.54.87-25.57Z"/><path class="cls-2" d="M57.27,90.18c10.45-8.03,23.66-11.99,36.72-12.58,14.06-.38,28,4.29,39.55,12.18,1.86,1.37,3.99,2.56,5.18,4.62-2.88,4.05-5.84,8.06-8.63,12.17-.77.89-1.3,2.19-2.5,2.56-1.67-.7-3.12-1.79-4.72-2.62-9.59-5.39-21.01-8.25-31.95-6.09-8.64,1.63-16.48,6.8-21.62,13.9-2.92,3.8-4.7,8.31-6.21,12.82-5.25,16.41-5.66,34.25-1.9,51.03,1.81,6.95,3.93,14.08,8.36,19.87,6.2,8.46,16.34,13.87,26.84,14.23,10.15.55,20.12-2.89,28.75-8.04,1.42-.83,2.68-1.93,4.2-2.6,1.15-.09,1.4,1.31,1.63,2.16.97,5.1,2.71,10.05,5.13,14.65.49.72.41,1.81-.43,2.22-9.5,7.18-20.91,11.88-32.75,13.28-4.97.79-10.06.71-15.04-.08-13.2-1.66-26.37-6.87-35.69-16.61-11.81-12.8-18.7-29.56-21.32-46.65-1.28-6.89-1.69-13.95-1.03-20.93,1.38-14.73,5.24-29.43,12.9-42.19,3.92-6.45,8.54-12.6,14.51-17.29Z"/><path class="cls-2" d="M168.88,122.94c8.09-1.82,16.47-2.63,24.74-1.81,8.43.83,16.92,4.23,22.58,10.72,5.91,6.58,8.96,15.6,8.7,24.41-.03,15.4.02,30.79-.03,46.2.07,6.47-2.75,12.84-7.49,17.21-5.54,5.21-12.79,8.17-20.03,10.15-9.8,2.42-20.21,3.9-30.16,1.45-9.21-2.09-17.45-8.17-21.95-16.49-4.21-7.72-6.52-16.76-5.05-25.55,1.1-7.56,5-14.77,11.02-19.53,6.71-5.4,15.22-8.2,23.72-8.99,8.67-.12,17.35-.07,26.02-.1-.05-2.65.16-5.32-.13-7.96-1.21-6.61-7.26-11.66-13.8-12.52-5.51-.75-11.23-.08-16.35,2.12-5.06,1.37-11.01,1.52-15.5-1.57-2.87-1.78-4.86-4.74-6-7.86-.47-1.06.62-1.72,1.33-2.24,5.51-3.81,11.95-6.02,18.39-7.67ZM170.77,182.59c-7.73,6.03-7.8,18.91-.87,25.57,3.39,3.35,8.14,5.04,12.81,5.55,6.42.37,12.75-2.14,17.8-5.98,0-9.48-.01-18.95,0-28.43-5.11-.01-10.22,0-15.33-.01-4.94-.14-10.3.23-14.4,3.3Z"/><path class="cls-2" d="M277.01,121.02c6.86-1.18,13.84-.25,20.63.89.85.26,2.21.25,2.35,1.4.46,2.81-.62,5.61-1.67,8.18-1.37,2.82-2.98,5.82-5.85,7.35-3.99,2.18-8.64,2.83-13.14,2.7-5.12.11-10.5,1.13-14.63,4.35-3.56,2.95-5.51,7.6-5.55,12.18-.02,23.61.04,47.23-.02,70.84.19,2.17-2.39,1.71-3.78,1.78-4.91-.16-10.34.79-14.65-2.17-4.6-3.24-6.15-9.27-5.81-14.64.01-19.61,0-39.22,0-58.83-.31-6.44,1.04-13.51,5.88-18.13,9.96-9.04,23.06-13.99,36.23-15.91Z"/><path class="cls-2" d="M305.63,135.78c11.22-9.42,25.8-14.23,40.29-15.3,8.83-.16,17.63,3.44,24.06,9.45,9.51-5.42,20.29-8.51,31.18-9.4,9.24-.55,19.12,2.03,25.74,8.81,4.3,4.57,7.4,10.5,8.06,16.78.04,26.79-.01,53.58.02,80.37-.05,1.19.13,2.43-.27,3.58-.86,1.1-2.39.66-3.59.76-3.83-.17-7.77.43-11.51-.65-4.62-1.33-7.8-5.72-8.62-10.33-.55-3.57-.17-7.19-.22-10.77-.31-5.4.22-10.8-.14-16.19.15-8.4.14-16.79,0-25.19.11-5.21.43-10.48-.47-15.65-.81-4.52-3.8-8.65-8.07-10.47-7.67-3.02-17.11-1.97-23.27,3.75.07,27.86.05,55.73.01,83.58.24,2.05-2.17,1.78-3.51,1.81-4.7-.23-9.79.77-14.1-1.64-4.29-2.4-6.56-7.41-6.56-12.2.01-19.8.02-39.61,0-59.41-.04-4.83-1.17-10.08-4.9-13.44-3.74-3.46-9.09-4.17-13.98-4.06-4.8.14-9.39,2.18-13,5.3.08,27.47,0,54.94.04,82.4-.14.95.23,2.41-.89,2.87-2.8.35-5.63.11-8.43.18-3.19.05-6.61-.26-9.26-2.23-3.93-2.69-5.7-7.59-5.72-12.21.02-21.6-.01-43.19.01-64.79.08-5.89,2.37-11.99,7.1-15.7Z"/><path class="cls-2" d="M466.12,128.93c10.2-6.27,22.61-8.93,34.47-7.2,7.52,1.01,14.96,4.05,20.43,9.42,6.3,6.12,9.87,14.65,10.8,23.31.65,7.46-1.91,15.47-7.79,20.34-5.19,4.22-11.84,6.85-18.58,6.72-12.64,0-25.28-.05-37.91.02.18,3.23.46,6.49,1.49,9.58,2.18,6.77,7.35,12.28,13.61,15.52,11.32,5.88,24.8,7.06,37.12,3.91,18.74-4.76,34.62-17.5,46.06-32.77-7.19-10.7-14.35-21.41-21.55-32.11-1.77-2.57-4.04-5.27-3.74-8.6.4-4.29,3.52-7.79,6.98-10.08,2.23-1.48,4.28-3.22,6.63-4.5,1.44-.56,2.18,1.07,2.93,1.98,7.04,10.59,14.22,21.09,21.32,31.64,5.96-8.84,12-17.63,17.99-26.45,1.76-2.53,3.2-5.34,5.56-7.38,3.16,2.21,6.52,4.13,9.52,6.54,4.26,3.51,4.42,10.14,1.77,14.66-7.16,10.86-14.22,21.78-21.35,32.66,5.39,7.85,10.65,15.79,16.07,23.63-5.37,5.66-10.99,11.08-16.9,16.18-.13-1.1-.83-2-1.42-2.89-3.54-4.92-6.78-10.06-10.24-15.04-.3-.37-1.03-1.46-1.43-.56-4.94,5.88-10.27,11.49-16.37,16.19-14.64,11.76-32.7,19.18-51.34,21.35-9.1.91-18.37-.04-27.17-2.5-9.2-2.56-17.77-7.59-24.17-14.72-8.31-9.12-12.78-21.15-14.41-33.25-1.31-10.86-.26-22.07,3.31-32.43,3.29-9.48,9.73-17.91,18.3-23.2ZM474.26,146.67c-4.25,4.58-6.56,10.75-6.65,16.98,10.02.01,20.04,0,30.06.01,3.29,0,6.75-.66,9.39-2.76,2.11-1.66,3.27-4.38,3.08-7.04-.42-4.19-2.38-8.3-5.67-10.98-3.65-3.17-8.73-3.95-13.4-3.67-6.3.16-12.46,2.9-16.81,7.46Z"/></svg>