<?xml version="1.0" encoding="UTF-8"?>
<svg id="Layer_1" xmlns="http://www.w3.org/2000/svg" version="1.1" viewBox="0 0 2000 2000">
  <!-- Generator: Adobe Illustrator 29.7.1, SVG Export Plug-In . SVG Version: 2.1.1 Build 8)  -->
  <defs>
    <style>
      .st0 {
        fill: #ac9270;
      }
    </style>
  </defs>
  <g>
    <path class="st0" d="M959.9,1152.84h0s-.02.01-.02.01c-3.33,3.39-8.64,3.72-13.97,3.72h-13.3v2.71h13.31v63.95h-13.29v2.71h40.56v-2.71h-13.29v-70.39Z"/>
    <path class="st0" d="M729.93,1107.51h0s-46.98,0-46.98,0v2.7h16.32v113.03h-16.32v2.69h49.95v-2.69h-16.82v-52.98c3.3,1.68,9.9,2.85,15.5,2.85,19.95,0,41.87-8.57,41.87-32.79s-18.95-32.81-43.52-32.81ZM728.78,1170.42c-5.44,0-10.21-1.85-12.69-3.53v-56.68h10.04s.02,0,.02,0c19.61,0,29.51,8.91,29.51,31.62s-16,28.59-26.88,28.59Z"/>
    <path class="st0" d="M826.19,1058.01h-16.34v-35.5c0-22.51,13.28-33.76,20.65-33.76.9,0,1.79,0,2.51.52-1.97,1.05-3.95,3.63-3.95,7.44,0,4.68,1.98,7.62,7.9,7.62,5.4,0,8.27-3.63,8.27-8.13,0-6.06-5.21-10.21-11.85-10.21h-.01v-.02c-14.72,0-21,12.63-23.16,20.42h-.36v-20.43c-3.59,3.48-9.34,3.82-15.09,3.82h-15.08v2.77h15.08v65.46h-15.08v2.77h46.51v-2.77Z"/>
    <path class="st0" d="M844.06,1225.2c-4.51,0-5.02-4.38-5.02-7.72v-45.97c0-13.52-15.04-20.36-27.75-20.36h0c-16.71.01-25.74,9.83-25.74,18.78,0,5.97,2.67,9.83,7.35,9.83,4.35,0,7.69-3.17,7.69-7.38,0-7.89-5.52-5.95-5.52-10.17,0-6.32,11.37-8.25,16.22-8.25,6.36,0,13.71,1.92,13.71,10.18v21.57h-3.18c-17.23,0-42.14,4.93-42.14,24.57,0,11.94,7.86,18.78,20.9,18.78,11.03,0,18.56-2.98,24.24-10.88h.33c1.18,6.15,6.87,10.88,14.72,10.88,7.19,0,11.54-3.69,14.72-9.48l-1.85-1.39c-2.5,3.67-4.83,7.01-8.68,7.01ZM825.01,1211.52c0,3.5-5.52,13.33-18.06,13.33-10.7,0-12.21-7.37-12.21-17.2,0-18.78,15.21-19.13,27.42-19.13h2.84s.01.01.01.01v22.99Z"/>
    <path class="st0" d="M918.96,1060.02c-4.51,0-5.01-4.37-5.01-7.71v-45.97c0-13.52-15.05-20.37-27.75-20.37h0c-16.72,0-25.75,9.83-25.75,18.78,0,5.96,2.68,9.83,7.36,9.83,4.35,0,7.69-3.16,7.69-7.38,0-7.89-5.53-5.95-5.53-10.17,0-6.32,11.37-8.25,16.22-8.25,6.36,0,13.71,1.92,13.71,10.17v21.6h-3.17c-17.23,0-42.14,4.91-42.14,24.57,0,11.93,7.85,18.77,20.9,18.77,11.03,0,18.55-2.98,24.24-10.88h.33c1.17,6.15,6.86,10.88,14.71,10.88,7.2,0,11.54-3.69,14.72-9.48l-1.84-1.4c-2.5,3.68-4.84,7.01-8.69,7.01ZM899.91,1046.35c0,3.5-5.52,13.32-18.05,13.32-10.71,0-12.22-7.36-12.22-17.19,0-18.78,15.21-19.13,27.43-19.13h2.84v23Z"/>
    <path class="st0" d="M914.52,1151.15h0s-.01,0-.01,0c-14.72,0-21,12.63-23.16,20.42h-.36v-20.43c-3.59,3.48-9.33,3.82-15.08,3.82h-15.08v2.77h15.08v65.45h-15.08v2.77h46.51v-2.77h-16.34v-35.5c0-22.51,13.28-33.76,20.64-33.76.9,0,1.79,0,2.52.52-1.97,1.04-3.95,3.63-3.95,7.44,0,4.68,1.97,7.62,7.9,7.62,5.39,0,8.26-3.63,8.26-8.13,0-6.06-5.21-10.21-11.85-10.21Z"/>
    <polygon class="st0" points="934.17 777.18 934.17 777.18 934.18 777.18 934.17 777.18"/>
    <path class="st0" d="M934.17,794.45c4.65,0,8.49-3.9,8.49-8.64s-3.83-8.63-8.48-8.63c-4.66,0-8.47,3.89-8.47,8.63s3.82,8.64,8.47,8.64Z"/>
    <path class="st0" d="M996.17,889.68c-18.03,0-22.49-15.8-23.86-24.75h-2.23l.34,26.49h2.58c.34-3.67-.17-6.49,2.06-6.49,3.43,0,7.88,7.54,21.1,7.54s23.85-10.69,23.85-27.01c0-12.12-5.66-19.83-19.57-20.71l-5.82-.35c-11.34-.71-18.02-3.87-18.02-12.99s7.04-14.03,15.79-14.03c13.55,0,18.71,9.13,19.91,19.13h2.22l-.68-20.88h-2.41v1.4c0,2.46-.17,3.68-1.2,3.68-1.72,0-8.07-6.15-17.33-6.15h0c-13.39.01-21.45,10.02-21.45,22.65,0,18.24,10.8,19.82,21.97,21.06,9.08,1.05,19.39,1.22,19.39,15.09,0,10-7.21,16.32-16.64,16.32Z"/>
    <path class="st0" d="M1795.58,962.73c4.65,0,8.47-3.88,8.47-8.63s-3.82-8.63-8.47-8.63-8.48,3.89-8.48,8.63,3.83,8.63,8.48,8.63Z"/>
    <polygon class="st0" points="864.35 814.56 864.35 814.56 864.35 814.56 864.35 814.56"/>
    <path class="st0" d="M927.19,886.67h-13.29v2.7h40.56v-2.7h-13.29v-70.39h0s-.01.01-.01.01c-3.33,3.39-8.65,3.72-13.97,3.72h-13.3v2.71h13.3v63.95Z"/>
    <path class="st0" d="M717.55,886.68h-6.72c-8.9,0-10.42-2.85-10.42-13.96v-90.67h.33l41.66,104.63h1.51l40.99-106.65h.33v106.65h-15.79v2.69h47.7v-2.69h-14.78v-113.04h14.78v-2.69h-31.91l-34.6,89.49-35.27-89.49h-32.42v2.69h14.77v99.08c0,11.1-1.51,13.96-10.4,13.96h-4.37v2.69h34.61v-2.69Z"/>
    <path class="st0" d="M853.64,892.48c11.03,0,18.55-2.98,24.24-10.88h.33c1.17,6.15,6.86,10.88,14.71,10.88,7.2,0,11.54-3.69,14.72-9.48l-1.84-1.4c-2.51,3.68-4.84,7.02-8.69,7.02-4.51,0-5.01-4.39-5.01-7.73v-45.97c0-13.51-15.05-20.36-27.75-20.36v.02c-16.72,0-25.75,9.83-25.75,18.78,0,5.96,2.68,9.83,7.36,9.83,4.35,0,7.69-3.17,7.69-7.38,0-7.89-5.53-5.96-5.53-10.17,0-6.32,11.37-8.25,16.22-8.25,6.36,0,13.71,1.92,13.71,10.17v21.58h-3.18c-17.22,0-42.13,4.91-42.13,24.57,0,11.93,7.85,18.77,20.9,18.77ZM875.22,851.95h2.85v23c0,3.5-5.52,13.32-18.05,13.32-10.71,0-12.22-7.36-12.22-17.19,0-18.78,15.22-19.13,27.42-19.13Z"/>
    <path class="st0" d="M735.06,1058.02h-18.46v-57.66h14.96c18.31,0,22.12,7.94,22.12,21.06h2.79v-45.93h-2.79c0,11.22-3.81,22.1-21.95,22.1h-15.14v-55.59h31.85c19.18,0,30.7,6.39,31.4,26.59h2.96l-2.43-29.35v-.02h-97.43v2.77h15.87v116.03h-15.87v2.77h52.12v-2.77Z"/>
    <polygon class="st0" points="1137.78 984.55 1137.78 984.56 1137.78 984.56 1137.78 984.55"/>
    <path class="st0" d="M1608.58,1048.5l-26.53-33.07,18.75-17.81c5.75-5.43,8.45-6.79,14.2-6.79h5.92v-2.71h-35.67v2.71h5.75c5.24,0,7.61.85,7.61,2.72,0,1.19-2.2,4.24-5.92,7.8l-27.05,26.12v-94.46h-.01c-3.39,3.9-8.79,4.24-14.2,4.24h-13.36v2.71h13.36v114.99h-13.34v2.71h39.38v-2.71h-11.83v-23.75l5.92-5.6,23.67,29.35h-12.17v2.71h42.42v-2.71h-8.62c-3.21,0-4.56-1.87-8.28-6.45Z"/>
    <path class="st0" d="M1725.4,988.25v2.71h15.67v91.34c.04,1.17.28,11.12-3.82,15.75-4,4.51-11.88,4.29-11.88,4.29v2.04s13.99.58,22.22-5.03c6.55-4.45,7.48-11.39,7.48-17.94v-96.87h0c-3.34,3.38-8.67,3.71-14.01,3.71h-15.66Z"/>
    <path class="st0" d="M1706.86,933.01c-3.56,3.94-9.24,4.28-14.92,4.28h-14.21v2.73h14.21v62.26h-.36c-3.19-8.04-11.72-17.45-24.51-17.45-21.32,0-35.35,21.22-35.35,37.98,0,20.02,14.39,37.97,36.6,37.97,12.25,0,20.6-8.72,23.26-14.53h.36v12.48h27.17v-2.74h-12.25v-122.98ZM1691.94,1034.08c.17,14.21-11.55,23.96-23.62,23.96-17.41,0-19.55-9.76-19.55-35.24,0-23.44,2.67-35.24,18.3-35.24h0c14.74.01,24.87,14.03,24.87,26.52v20Z"/>
    <path class="st0" d="M1526.24,985.97h0c-14.72,0-21,12.63-23.16,20.42h-.36v-20.43c-3.59,3.48-9.33,3.82-15.08,3.82h-15.08v2.77h15.08v65.45h-15.08v2.77h46.51v-2.77h-16.35v-35.5c0-22.51,13.28-33.76,20.65-33.76.89,0,1.79,0,2.51.52-1.97,1.05-3.94,3.63-3.94,7.44,0,4.68,1.97,7.62,7.89,7.62,5.39,0,8.26-3.63,8.26-8.14,0-6.05-5.21-10.21-11.85-10.21Z"/>
    <path class="st0" d="M1449.79,985.97h0c-3.35,3.51-8.72,3.85-14.06,3.85h-13.23v2.81h13.23v41.59c0,12.98-10.38,26.85-22.1,26.85-6.36,0-10.37-4.74-10.37-12.28v-62.82c-3.35,3.52-8.71,3.86-14.07,3.86h-13.39v2.81h13.39v51.78c0,10.16,6.03,19.47,22.77,19.47,14.9,0,21.93-14.04,23.44-18.08h.33v15.97h27.46v-2.8h-13.4v-73.01Z"/>
    <path class="st0" d="M952.91,1131.01c4.65,0,8.47-3.9,8.47-8.64s-3.81-8.63-8.47-8.63-8.48,3.88-8.48,8.63,3.83,8.64,8.48,8.64Z"/>
    <path class="st0" d="M1748.06,945.47c-4.66,0-8.49,3.89-8.49,8.63s3.83,8.63,8.49,8.63,8.49-3.88,8.49-8.63-3.82-8.63-8.49-8.63Z"/>
    <path class="st0" d="M1986.5,1058v-52.46c0-10.22-5.12-19.57-23.4-19.57h0c-12.46.01-21,9.37-25.44,17.67h-.34v-17.67c-3.07,3.82-6.14,3.82-14.34,3.82h-13.49v2.77h13.49v65.44h-13.49v2.77h40.81v-2.77h-12.98v-48.83c3.08-5.88,10.42-20.42,24.76-20.42,5.47,0,10.08,3.12,10.08,12.64v56.61h-13.49v2.77h41.33v-2.77h-13.5Z"/>
    <path class="st0" d="M1802.56,984.55h0c-3.32,3.4-8.63,3.73-13.96,3.73h-13.3v2.71h13.3v63.96h-13.3v2.71h40.57v-2.71h-13.3v-70.4Z"/>
    <path class="st0" d="M1892.71,1060.02c-4.51,0-5.01-4.37-5.01-7.71v-45.97c0-13.52-15.06-20.37-27.75-20.37h0c-16.71,0-25.74,9.83-25.74,18.78,0,5.96,2.67,9.83,7.35,9.83,4.35,0,7.69-3.16,7.69-7.38,0-7.89-5.53-5.95-5.53-10.17,0-6.32,11.37-8.25,16.22-8.25,6.36,0,13.71,1.92,13.71,10.17v21.6h-3.18c-17.23,0-42.14,4.91-42.14,24.57,0,11.93,7.85,18.77,20.9,18.77,11.03,0,18.56-2.98,24.24-10.88h.33c1.18,6.15,6.87,10.88,14.72,10.88,7.19,0,11.54-3.69,14.72-9.48l-1.84-1.4c-2.51,3.68-4.84,7.01-8.69,7.01ZM1873.67,1046.35c0,3.5-5.52,13.32-18.06,13.32-10.7,0-12.21-7.36-12.21-17.19,0-18.78,15.21-19.13,27.42-19.13h2.84s.01.01.01.01v22.99Z"/>
    <path class="st0" d="M1069.95,814.56c-22.79,0-37.45,18.78-37.45,38.96s14.66,38.96,37.45,38.96,37.45-18.78,37.45-38.96-14.66-38.96-37.45-38.96ZM1090.44,860.38c0,15.26-.7,29.3-20.49,29.3s-20.49-14.04-20.49-29.3v-15.17c.07-14.69,1.34-27.83,20.49-27.83h0c19.78.01,20.49,14.04,20.49,29.31v13.69Z"/>
    <path class="st0" d="M1072.18,1061.08c-19.31,0-20.01-14.04-20.01-29.3v-15.27c0-16.68,3.97-27.73,20.7-27.73,5,0,12.94,1.57,12.94,5.44,0,2.63-4.31,2.29-4.31,9.31,0,3.67,2.93,7.54,8.27,7.54,4.31,0,8.28-3.51,8.28-8.78,0-10.88-12.77-16.32-24.84-16.32h0s.01.01.01.01c-20.35,0-37.6,18.95-37.6,41.94,0,19.82,14.31,35.97,36.56,35.97,17.08,0,28.46-13.52,28.98-26.85h-2.76c-1.21,10.7-8.8,24.04-26.22,24.04Z"/>
    <path class="st0" d="M1016.04,1181.33l-5.82-.34c-11.34-.71-18.02-3.88-18.02-13s7.04-14.03,15.79-14.03c13.55,0,18.71,9.13,19.91,19.13h2.22l-.69-20.88h-2.4v1.4c0,2.46-.17,3.68-1.2,3.68-1.72,0-8.07-6.14-17.33-6.14h0c-13.39,0-21.45,10.01-21.45,22.65,0,18.23,10.8,19.81,21.97,21.05,9.08,1.06,19.39,1.23,19.39,15.09,0,10-7.21,16.32-16.64,16.32-18.03,0-22.49-15.8-23.86-24.74h-2.23l.34,26.49h2.58c.34-3.68-.17-6.49,2.06-6.49,3.43,0,7.9,7.54,21.11,7.54s23.84-10.7,23.84-27.02c0-12.11-5.66-19.83-19.57-20.71Z"/>
    <path class="st0" d="M1363.49,1051.97l-49.15-63.71,33.52-32.62c5.26-5.01,14.11-13.65,24.15-13.65h5.78v-2.77h-44.57v2.77h9.53c5.44,0,6.97,1.39,6.97,3.63,0,3.46-12.92,16.41-18.2,21.58l-32.14,31.43v-56.62h17.18v-2.77h0s-.01-.01-.01-.01v-.02h-49.99v2.77h15.47v116.03h-15.48v2.77h50.01v-2.77h-17.18v-55.42l2.2-1.72,43.54,57.14h-15.82v2.77h52.73v-2.77h-9.35c-4.76,0-5.95-2.07-9.19-6.04Z"/>
    <path class="st0" d="M984.93,1058v2.77h41.33v-2.77h-13.5v-52.46c0-10.22-5.12-19.57-23.39-19.57h0s-.01.01-.01.01c-12.47,0-21,9.36-25.45,17.66h-.33v-17.67c-3.08,3.82-6.14,3.82-14.34,3.82h-13.5v2.77h13.5v65.44h-13.5v2.77h40.82v-2.77h-12.98v-48.83c3.08-5.88,10.42-20.42,24.76-20.42,5.47,0,10.08,3.12,10.08,12.64v56.61h-13.49Z"/>
    <path class="st0" d="M1192.73,1016.16l-6.2-.34c-12.04-.71-19.15-3.89-19.15-13s7.47-14.03,16.78-14.03c14.4,0,19.87,9.13,21.15,19.13h2.37l-.73-20.88h-2.56v1.4c0,2.45-.18,3.69-1.27,3.69-1.83,0-8.57-6.16-18.42-6.16h0v.02c-14.22,0-22.79,10-22.79,22.63,0,18.25,11.49,19.83,23.33,21.06,9.67,1.05,20.61,1.22,20.61,15.09,0,10-7.66,16.32-17.68,16.32-19.15,0-23.89-15.8-25.35-24.75h-2.37l.37,26.49h2.73c.38-3.67-.18-6.49,2.19-6.49,3.65,0,8.39,7.54,22.43,7.54s25.34-10.69,25.34-27.01c0-12.11-6.02-19.83-20.78-20.71Z"/>
    <path class="st0" d="M1143.64,837.77c2.97-5.88,10.06-20.42,23.9-20.42,5.28,0,9.73,3.12,9.73,12.64v56.61h-13.02v2.77h39.89v-2.77h-13.03v-52.46c0-10.22-4.94-19.57-22.57-19.57-12.05,0-20.29,9.36-24.58,17.66h-.32v-17.66c-2.97,3.82-5.93,3.82-13.85,3.82h-13.03v2.77h13.03v65.44h-13.03v2.77h39.41v-2.77h-12.53v-48.83Z"/>
    <path class="st0" d="M1130.81,962.73c4.65,0,8.47-3.88,8.47-8.63s-3.81-8.63-8.47-8.63-8.48,3.89-8.48,8.63,3.83,8.63,8.48,8.63Z"/>
    <path class="st0" d="M1137.78,984.56h-.02c-3.32,3.39-8.64,3.72-13.96,3.72h-13.3v2.71h13.31v63.96h-13.3v2.71h40.57v-2.71h-13.3v-70.39Z"/>
  </g>
  <g>
    <path class="st0" d="M0,682.44v628.91h628.9v-628.91H0ZM621.72,1304.15H7.19v-614.53h614.53v614.53Z"/>
    <polygon class="st0" points="198.48 814.55 275.8 814.55 275.8 970.51 134.73 788.8 134.73 788.8 75.45 788.8 216.51 972.7 75.07 1204.87 144.66 1204.87 275.81 990.03 275.81 1205.04 301.58 1205.04 301.62 788.8 198.48 788.8 198.48 814.55"/>
    <polygon class="st0" points="553.65 788.8 494.38 788.8 353.18 970.52 353.18 814.55 430.51 814.55 430.51 788.8 430.51 788.79 327.41 788.79 327.41 1205.03 353.19 1205.03 353.19 990.51 483.94 1204.87 553.8 1204.87 412.5 972.7 553.65 788.8"/>
  </g>
</svg>