<?xml version="1.0" encoding="utf-8"?>
<!-- Generator: Adobe Illustrator 19.0.0, SVG Export Plug-In . SVG Version: 6.00 Build 0)  -->
<svg version="1.1" id="Layer_1" xmlns="http://www.w3.org/2000/svg" xmlns:xlink="http://www.w3.org/1999/xlink" x="0px" y="0px"
	 viewBox="0 0 666.2 500" style="enable-background:new 0 0 666.2 500;" xml:space="preserve">
<g>
	<g>
		<path d="M153.2,6.1l-11.6,0.3c-4.5,0.2-6.4,0.5-7.6,2.3c-0.8,1.2-1.2,2.1-1.3,2.7s-0.4,0.9-0.9,0.9c-0.5,0-0.7-0.4-0.7-1.3
			c0-1.2,1.5-8.4,1.6-9c0.2-1,0.5-1.5,0.9-1.5c0.6,0,1.4,0.8,3.4,0.9c2.3,0.2,5.2,0.4,7.8,0.4h30.9c2.5,0,4.2-0.2,5.4-0.4
			c1.2-0.2,1.8-0.4,2.1-0.4c0.5,0,0.6,0.5,0.6,1.6c0,1.6-0.2,7-0.2,9.1c-0.1,0.8-0.2,1.2-0.7,1.2c-0.6,0-0.8-0.4-0.9-1.6l-0.1-0.9
			c-0.2-2-2.3-4.2-9.2-4.4l-9.8-0.2v32c0,7.2,0,13.3,0.4,16.7c0.2,2.2,0.7,3.9,3,4.2c1.1,0.2,2.8,0.3,4,0.3c0.9,0,1.2,0.2,1.2,0.6
			c0,0.5-0.6,0.8-1.5,0.8c-5.2,0-10.1-0.2-12.3-0.2c-1.8,0-6.7,0.2-9.8,0.2c-1,0-1.6-0.2-1.6-0.8c0-0.4,0.3-0.6,1.2-0.6
			c1.2,0,2.1-0.2,2.8-0.3c1.6-0.3,2-2,2.3-4.3c0.4-3.3,0.4-9.4,0.4-16.6V6.1"/>
		<path d="M196.6,24.4c0-11.9,0-14.1-0.2-16.5c-0.2-2.7-0.8-3.9-3.4-4.5c-0.6-0.2-2-0.2-3-0.2c-0.9,0-1.3-0.2-1.3-0.7
			c0-0.5,0.5-0.7,1.7-0.7c2.1,0,4.4,0.1,6.3,0.1c2,0.1,3.8,0.2,4.9,0.2c2.5,0,18,0,19.5-0.1c1.5-0.2,2.7-0.3,3.4-0.5
			c0.4-0.1,0.9-0.3,1.3-0.3c0.4,0,0.5,0.3,0.5,0.7c0,0.5-0.4,1.5-0.6,5.1c-0.1,0.8-0.2,4.2-0.4,5.2c-0.1,0.4-0.2,0.9-0.8,0.9
			c-0.5,0-0.7-0.4-0.7-1.1c0-0.5-0.1-1.9-0.5-2.8c-0.5-1.4-1.3-2.3-5.2-2.8c-1.3-0.2-9.5-0.3-11.1-0.3c-0.4,0-0.5,0.2-0.5,0.8v19.8
			c0,0.5,0.1,0.9,0.5,0.9c1.7,0,10.7,0,12.5-0.2c1.9-0.2,3-0.4,3.7-1.2c0.5-0.6,0.9-1,1.2-1c0.3,0,0.5,0.2,0.5,0.6
			c0,0.5-0.3,1.7-0.6,5.7c-0.1,1.6-0.3,4.7-0.3,5.2c0,0.6,0,1.5-0.7,1.5c-0.5,0-0.7-0.3-0.7-0.7c-0.1-0.8-0.1-1.8-0.3-2.8
			c-0.4-1.6-1.5-2.7-4.4-3c-1.5-0.2-9.2-0.2-11.1-0.2c-0.4,0-0.5,0.3-0.5,0.8v6.2c0,2.7-0.1,9.8,0,12.1c0.2,5.4,1.4,6.6,9.4,6.6
			c2,0,5.3,0,7.3-0.9c2-0.9,3-2.6,3.5-5.8c0.2-0.9,0.3-1.2,0.9-1.2c0.6,0,0.6,0.6,0.6,1.4c0,1.8-0.6,7.1-1,8.7c-0.5,2-1.2,2-4.2,2
			c-5.9,0-10.1-0.2-13.5-0.2c-3.4-0.2-5.8-0.2-8.1-0.2c-0.9,0-2.6,0-4.5,0.1c-1.8,0-3.8,0.2-5.4,0.2c-1,0-1.6-0.2-1.6-0.8
			c0-0.4,0.3-0.6,1.2-0.6c1.2,0,2.1-0.2,2.8-0.3c1.6-0.3,2-2,2.3-4.3c0.4-3.3,0.4-9.4,0.4-16.6V24.4"/>
		<path d="M279.9,59.8c-3.1,1.2-8.1,2-12.3,2c-22.9,0-31.8-16.9-31.8-31c0-12.7,9.1-30.2,32-30.2c18.7,0,31.6,11.3,31.6,29.6
			c0,13.7-8.7,22.4-13.6,25.7l15.7,8c16.5,8.4,26.9,9.3,32.2,9.3c4.1,0,9.8-0.6,15.2-2.7c0.5-0.2,0.9-0.4,1.2-0.4
			c0.4,0,0.7,0.3,0.7,0.7c0,0.5-0.4,0.7-0.9,0.9c-4.7,2.3-13.5,5.9-24.7,5.9c-11.8,0-20.1-3-33-10.6L279.9,59.8 M288.6,32.3
			c0-18.9-11.7-27.9-22.5-27.9c-10.2,0-19.4,6.6-19.4,24.7c0,18.6,11.2,28.9,23.8,28.9C276.8,57.9,288.6,55.2,288.6,32.3z"/>
		<path d="M312.1,24.4c0-11.9,0-14.1-0.2-16.5c-0.2-2.7-0.8-3.9-3.4-4.5c-0.6-0.2-2-0.2-3-0.2c-0.9,0-1.3-0.2-1.3-0.7
			c0-0.5,0.5-0.7,1.7-0.7c4.1,0,9.1,0.2,11.4,0.2c1.9,0,6.8-0.2,9.6-0.2c1.2,0,1.7,0.2,1.7,0.7c0,0.5-0.5,0.7-1.2,0.7
			c-0.9,0-1.3,0.1-2.3,0.2c-2.1,0.4-2.7,1.7-2.9,4.5c-0.2,2.5-0.2,4.7-0.2,16.5v10.9c0,11.3,2.3,16.1,6.1,19.2
			c3.5,2.9,7.1,3.2,9.8,3.2c3.4,0,7.6-1.1,10.8-4.2c4.3-4.3,4.5-11.3,4.5-19.4v-9.8c0-11.9,0-14.1-0.2-16.5
			c-0.2-2.7-0.8-3.9-3.4-4.5c-0.6-0.2-2-0.2-2.8-0.2c-0.9,0-1.3-0.2-1.3-0.7c0-0.5,0.5-0.7,1.6-0.7c4,0,8.9,0.2,9,0.2
			c0.9,0,5.9-0.2,8.9-0.2c1.1,0,1.6,0.2,1.6,0.7c0,0.5-0.5,0.7-1.4,0.7c-0.9,0-1.3,0.1-2.3,0.2c-2.1,0.4-2.7,1.7-2.9,4.5
			c-0.2,2.5-0.2,4.7-0.2,16.5v8.4c0,8.7-0.9,17.9-7.4,23.5c-5.5,4.8-11.2,5.6-16.2,5.6c-4.1,0-11.6-0.2-17.3-5.4
			c-4-3.6-6.9-9.4-6.9-20.7V24.4"/>
		<path d="M380.4,24.4c0-11.9,0-14.1-0.2-16.5c-0.2-2.7-0.9-4-2.7-4.4c-0.9-0.2-1.9-0.3-2.8-0.3c-0.8,0-1.2-0.2-1.2-0.8
			c0-0.5,0.6-0.6,1.9-0.6c3,0,7.9,0.2,10.2,0.2c2,0,6.6-0.2,9.5-0.2c1,0,1.6,0.2,1.6,0.6c0,0.6-0.5,0.8-1.3,0.8
			c-0.8,0-1.4,0.1-2.3,0.2c-2.1,0.4-2.7,1.7-2.9,4.5c-0.2,2.5-0.2,4.7-0.2,16.5v13.7c0,7.6,0,13.7,0.3,17.1c0.2,2.1,0.8,3.5,3.1,3.8
			c1.1,0.2,2.8,0.3,4,0.3c0.9,0,1.3,0.2,1.3,0.6c0,0.5-0.6,0.8-1.5,0.8c-5.2,0-10.1-0.2-12.2-0.2c-1.8,0-6.7,0.2-9.8,0.2
			c-1,0-1.6-0.2-1.6-0.8c0-0.4,0.3-0.6,1.2-0.6c1.2,0,2.1-0.2,2.8-0.3c1.6-0.3,2-1.6,2.3-3.9c0.4-3.3,0.4-9.4,0.4-17V24.4"/>
		<path d="M423.9,38.1c0,10,0,15.4,1.6,16.8c1.3,1.2,3.4,1.7,9.4,1.7c4.1,0,7.2-0.1,9.1-2.2c0.9-1,1.9-3.2,2-4.7
			c0.1-0.7,0.2-1.2,0.9-1.2c0.5,0,0.6,0.4,0.6,1.3c0,0.9-0.5,6.7-1.2,9c-0.5,1.7-0.9,2.1-4.9,2.1c-5.6,0-9.7-0.2-13.2-0.2
			c-3.5-0.2-6.3-0.2-9.5-0.2c-0.9,0-2.6,0-4.4,0.1c-1.8,0-3.8,0.2-5.4,0.2c-1,0-1.6-0.2-1.6-0.8c0-0.4,0.3-0.6,1.2-0.6
			c1.2,0,2.1-0.2,2.8-0.3c1.6-0.3,2-2,2.3-4.3c0.4-3.3,0.4-9.4,0.4-16.6V24.4c0-11.9,0-14.1-0.2-16.5c-0.2-2.7-0.8-3.9-3.4-4.5
			C410,3.2,409,3.1,408,3.1c-0.9,0-1.3-0.2-1.3-0.7c0-0.5,0.5-0.7,1.7-0.7c3.7,0,8.6,0.2,10.7,0.2c1.9,0,7.6-0.2,10.6-0.2
			c1.1,0,1.6,0.2,1.6,0.7c0,0.5-0.5,0.7-1.4,0.7c-0.9,0-2.1,0.1-3,0.2c-2.1,0.4-2.7,1.7-2.9,4.5c-0.2,2.5-0.2,4.7-0.2,16.5V38.1"/>
	</g>
	<g>
		<g>
			<path d="M467.6,40.4c-0.4,0-0.5,0.2-0.7,0.6l-4.2,11.2c-0.8,2-1.2,3.8-1.2,4.8c0,1.4,0.7,2.4,3.1,2.4h1.2c0.9,0,1.2,0.2,1.2,0.6
				c0,0.6-0.5,0.8-1.3,0.8c-2.5,0-5.9-0.2-8.3-0.2c-0.9,0-5.2,0.2-9.2,0.2c-1,0-1.5-0.2-1.5-0.8c0-0.5,0.3-0.6,0.9-0.6
				c0.7,0,1.8-0.1,2.4-0.2c3.6-0.5,5.1-3.1,6.6-7l19.6-49c0.9-2.3,1.4-3.1,2.2-3.1c0.7,0,1.2,0.7,2,2.5c1.9,4.3,14.4,36.1,19.4,48
				c3,7,5.2,8.1,6.9,8.5c1.2,0.2,2.3,0.3,3.3,0.3c0.6,0,1,0.1,1,0.6c0,0.6-0.7,0.8-3.6,0.8c-2.8,0-8.5,0-14.8-0.2
				c-1.4-0.1-2.3-0.1-2.3-0.6c0-0.5,0.3-0.6,1.1-0.7c0.5-0.2,1.1-0.9,0.7-1.8l-6.2-16.6c-0.2-0.4-0.4-0.5-0.8-0.5H467.6 M483.5,36.5
				c0.4,0,0.5-0.2,0.4-0.5l-7-19.3c-0.1-0.3-0.2-0.7-0.4-0.7c-0.2,0-0.4,0.4-0.5,0.7l-7.2,19.2c-0.1,0.3,0,0.5,0.3,0.5H483.5z"/>
			<path d="M163.2,417.9c14.6-19.2,35.4-32.9,56.8-41c19-6.5,38.8-11.3,60.4-12.1c2.9-0.1,5.3,0.8,7.4,2.6c4,0,7.2-2.9,11.1-3.9
				c16.6-6.8,37.6-4.5,52.8,3.6c1.1,0,2,1.1,3.1,1c3.9-5.7,11.3-2.1,17.1-2.5c31.3,4,62.1,11.9,87,31.7
				c13.8,10.9,25.7,24.8,31.8,40.6c2.8,5.7,4.4,11.9,5.5,18.4c0.1,6.1,0.6,13-2.6,18c-2.9,6.8-8.8,12.6-16.3,13.8
				c-4,0.1-8.3-0.1-11.8-1.7c-5.5,2.1-11.2,5.1-18.1,4.1c-6.9-0.7-13.1-6.1-15.4-12.5l-0.8-3.4c-3.4-1-6.7-2.3-9.7-4.4
				c-3.1,8.4-10.3,17.9-19.9,19c-5,0.4-9.4-2.3-11.9-6.4c-1.3-2.2-1.8-4.8-2.4-7.4c-4.4-1.8-8.3-6.3-8.2-11.2
				c-0.1-6.3,3.7-11.4,4.9-17.3c5.3-16.3,2.7-35.9-5.5-50.1c-3.6-6.4-8.9-12.2-15.1-16.5c-3.2-1.2-7.7-2.4-8.8-6.1
				c-19.7-9.7-45.8-9.9-65.9-0.7c-1.3,5.5-7.4,5.2-10.9,7.7c-9.9,7.5-15.7,18.3-19.3,29.4c-2.1,8.8-3.5,17.5-1.5,26.7
				c1.3,8.1,3.9,15.6,6.7,23c0.6,4.3,0.2,8.9-3.1,11.7c-1.5,1.6-3.4,2.4-5,3.6c-0.8,5.4-4,11.7-9.8,13.1c-8.2,1.9-15.1-3.3-19.7-9.5
				c-1.9-2.8-3-6-4.6-9c-1.6,0.3-3,1.8-4.6,2.4c-1.7,0.9-3.9,0.9-5.3,2.1c-0.8,6.4-6.1,12.5-12.1,14.5c-3.9,1.4-8.7,1.7-12.8,0.5
				c-3.3-0.4-6-2.5-9.1-3.5c-5.5,1.5-13.4,2.8-18.3-0.8c-6.6-3.5-10.4-10.5-12.2-17.3c-0.3-3.9-0.8-7.2-0.3-11.2
				c-0.1-4.9,2-9.3,3-13.9C153.2,434.3,157.4,425.8,163.2,417.9 M154,443.8c-3.6,10.2-6.4,26.5,2.9,35.1c3.9,5.7,11.8,5.5,17.8,4.3
				c3.9-3.6,7.2,1.8,10.8,2.5c2.8,0.7,5.7,1.3,8.7,0.8c5.8-0.4,11.7-4.8,13.3-10.4c1-1.7-1.1-4.3,1.2-5.4c2.1-0.2,3.8-0.1,5.7-0.7
				c6.6-3,11.6-10.1,12.6-16.9c4.8-30.2,19.1-63.7,49.5-75.6c2.6-1.7,7.3-0.8,7.9-4.8c0.2-1.9-1.7-3.2-3.2-3.9
				c-16.5,0.4-32.1,3.1-47.3,7.6c-2.1,0.9-4.5,1-6.5,2c-23.4,7-45.5,21.6-61.2,41.7C160.8,427.4,156.9,435.4,154,443.8z
				 M159.9,448.3c-2,3.1-3.2,6.6-3.8,10.3c-0.8,7.1,0.9,14.1,6.5,18.1c2.7,2,6.7,1.7,9.6,0.5c2.5-1.7,4.8-3.9,4.3-7.2
				c-7.2-5.2-11.8-12.9-13.6-21.3c-0.1-1-1.3-1.3-2.2-1.2C160.2,447.5,160.2,448.1,159.9,448.3z M161.1,454.9c1.1,1.3,1.2,3.3,2,4.8
				c2,4.2,5.2,8.5,9.1,11.3c0.6,1.4-1.4,2.1-2.2,2.9c-1.5,0.7-3.7,0.5-5-0.3c-5.1-3-5.6-9.2-5.3-14.6
				C160,457.5,160,455.8,161.1,454.9z M176.7,415.4c-9.3,9.5-12.3,23.5-8,36.3c1.6,3.1,2.8,6.6,5.6,8.8c3.6,3.3,7.9,5.8,12.9,4.3
				c4.7-1.5,8-5.8,9.1-10.5c2.5-10.6-1.8-21-9.8-27.7c-3.1-2.4-6.7-3.4-10.4-4.1c4.1-6.4,10.6-11.9,18.5-11c3.5,0,6.5,3,7.9,6.1
				c0.3,2.5-1.5,4.3-3.2,5.9c-1.5,0.8-3.2,1.2-5,0.9c-0.9-0.2-1.7-0.9-2.6-0.6c-0.5,0.4-1,1-0.6,1.7c2,2.6,5.1,2.4,8.1,1.9
				c3.3-0.7,4.9-4.4,6.1-7.1c1.3-4-1-7.4-3.9-10.1c-4.1-3.1-10.5-3.7-15.2-1.4C182.5,410.2,179.6,412.7,176.7,415.4z M173.5,426.8
				c6.6-0.3,12.4,3.3,16,8.8c3.7,6,4.9,14.4,1.9,21c-1.3,2.9-4.5,4.7-7.6,5c-5.7-0.6-10.1-6.6-11.9-11.8c-1.5-5.7-1.9-11.5-0.5-17.2
				C172.1,430.7,172.3,428.5,173.5,426.8z M180.6,473.6c1.1,4,5.5,6.1,9,7.3c4.2,1.1,8.9,0.3,11.6-3c1.1-1.6,1.3-4.1,0.6-6
				c-0.8-2.7-3.3-5.1-6.2-5.5c-4.1,2.8-8.7,4.3-13.8,5C181,471.9,180.2,472.4,180.6,473.6z M187.3,474.3c3.5-0.3,6.2-2.1,9.3-3.1
				c0.8,1.2,2,2.3,1.4,4c-1.3,2.3-4.5,1.9-6.9,1.8c-1.7-0.2-3.3-1.4-4.5-2.4L187.3,474.3z M196.3,402.8c4.2-0.3,7.9,1.4,11.2,3.9
				c1,0.3,1.5,1.4,2.9,1.1c11.3-11.1,24.1-19.8,37.7-25.9c1.1-0.3,1.6-1.6,1.1-2.6c-0.7-1.1-2.1-1.3-3.3-1
				c-18.6,3.4-35.7,10.3-51.2,20.8C194.2,400.5,194.9,402.3,196.3,402.8z M198.6,434.2c3.7,6.6,3.3,16.1,1.7,23.4
				c-0.6,0.9-0.7,2.1-0.6,3.2c2,2.5,5.6,1.2,8.3,1c5.4-1.3,10.6-6.4,11.8-11.8c1.3-5.9-0.5-11.8-4.8-15.8c-3.9-3.6-9.9-4.9-15.1-3.6
				C198.5,431.4,198.2,432.7,198.6,434.2z M210.5,394.2c6.6-3.5,13.8-5.9,20.8-7.9c-7.4,5-15.1,10.6-21.9,16.9
				c-2.5-0.8-4.8-2.9-7.6-3.5C204,397,207.7,396.2,210.5,394.2z M204.4,433.4c4.7,0.1,9.1,3.3,11.1,7.3c2.1,3.7,1.6,9.1-0.9,12.3
				c-2.2,3.5-6.3,5.5-10.3,5.2c0.6-6.2,2.4-13.6,0.1-19.8c-0.4-1.6-1-3.1-1.1-4.8L204.4,433.4z M212.6,416.8c0.6,1.8-0.6,4,0.7,5.4
				c3.7,1.9,6,5.6,8.5,8.8c1.4,1.2,0.5,3.3,1.9,4.5c0.8,0.5,1.9,0.4,2.6-0.2c4.7-16.6,12.2-32.7,25.2-45.2c1.1-1.9,4.6-2.3,3.7-5
				c-0.5-1.2-1.8-1.3-2.9-1c-14.9,7-28.5,16.7-40.7,28.7C211,414.3,212.3,415.5,212.6,416.8z M216.1,414.3
				c7.6-7.7,16.1-14.5,25.3-19.7l0.7,0c-8.1,10.2-13.4,21.4-17.6,33.1c-2.4-2.2-4.6-5.3-7.5-7c-0.3-1.2,0.1-2.6-0.4-4
				C216.5,415.8,215.9,415.2,216.1,414.3z M224.8,467.4c0.6,3.2,1.9,6.2,3.8,8.8c3.5,5.1,8.9,9.9,15.4,9c3.8-0.7,6.5-4.2,7.1-7.8
				c0.2-1.6-0.5-3.8,0.8-5.1c2.5-0.4,4.8-1.5,6.4-3.7c1.6-2.2,2.2-5.4,1.3-8.2c-6.8-15.5-10.2-35.8-4-52.6
				c2.6-7.3,5.7-14.3,10.6-20.4l-1.4,0.7c-12.6,9.2-21,22.8-26.2,36.6c-4.4,10.2-6.3,21.5-8.8,32.6
				C229.1,461.1,226.5,463.9,224.8,467.4z M237.4,445.3c-1.2,8.5-1.9,17.1-0.3,25.7c1.2,1.5,2.4,2.8,4.1,3.4
				c2.1,0.8,4.1-0.3,5.7-1.5c1.3-2.3,2.2-4.7,2.1-7.4c0.3-0.8,1.2-1,1.9-1.1c2.5-1.3,2.8-4.1,2.5-6.5c-3.6-9.4-4.7-20.2-4.9-30.7
				c-0.1-1.7,0.7-3.4,0.1-4.9c-0.3-0.7-1-1.1-1.8-1.1c-1.1,0.4-2.5,0.6-2.8,2C240.9,430.2,238.8,437.6,237.4,445.3z M244.4,434.1
				c1,5.1,1.1,10.1,2.2,15.2c0.4,3.7,2.6,6.8,2.3,10.7c-1.2,1.6-3.3,2.4-3.6,4.5c-0.2,1.6,0.5,3.4-0.5,4.9c-0.6,0.9-1.9,1.2-2.8,0.7
				c-2.5-1.7-1.6-5-2.1-7.4C240.1,453,240.8,442.7,244.4,434.1z M257.5,358.1c0.4,1.3,1.5,2.9,2.9,3.3c1.7,0.8,3.9,0.2,5.2-1.1
				c1.3-1.4,1.8-3.7,0.9-5.5c-2.9-2.4,0.2-5.8,0.7-8.5c4.7-12.3,8.7-25.1,18.3-35.3c3.6-3.1,7.6-7.5,12.7-5.4
				c8.6,5.3,10.2,15.4,10.6,25.1c-1.3,0.7-1.8,2.2-3.5,2.7c-0.5-1.6-1.1-3.1-1.9-4.5c-3.4-4.5-8.2-7.8-14.3-6.6
				c-5.2,0.8-9.9,5.3-11.1,10.4c-0.9,4,0,8.2,2.1,11.3c3.1,4.8,8.6,7.3,14.5,6.2c4.1-0.9,7.8-4.1,9.8-7.9c9.9-4.4,23.9-4.8,33.6,0.1
				l3.2,4.2c2.8,2.7,6.6,4.3,10.4,3.7c5.2,0,10.2-4,11.9-8.6c1.1-3.3,1.5-7.5-0.1-10.8c-2.5-5.4-7.6-8.7-13.5-8.5
				c-4.3,0.3-8.4,2.7-10.7,6.1c-1,1.8-1.7,3.3-2.2,5.2c-1.5-0.5-2-2.2-3.5-2.7l0.4-6.9c1-7.3,3.6-15.5,10.8-18.7
				c4.2-1.4,7.3,1.9,10.2,4c12.2,11.7,16.7,28.1,21.6,43.7c-1.6,1.6-2.3,4.1-1.4,6.2c0.8,1.1,1.9,2.4,3.3,2.6c1.5,0.3,3-0.1,4.1-1
				c1.3-1.1,1.7-2.6,1.6-4.3c-0.3-2-2.1-3.7-4-4.4c-1.9-7-4.9-13.5-7.3-20.3c-4.7-11-10.5-23.5-22.1-29.6c-4.4-2.2-9.6-0.4-12.9,2.7
				c-5.5,6.6-7.5,15.1-8.2,23.8c-3.7-1.3-7.9-2.2-12-1.5c-1.9,0.2-3.7,1.1-5.5,1.2c-0.2-2.7-0.8-5.3-1.2-8
				c-1.6-7.4-4.5-16.4-12.8-18.8c-7.3-1.7-12.6,4-17.4,8.9c-9.6,12-14.1,25.9-19,39.7c0.3,2.6-2.7,1.9-3.7,3.7
				C257.8,355.1,257.2,356.4,257.5,358.1z M265,405.2c-4.7,10.6-3.1,23.9-0.1,34.8c8.9,25.8,31.7,48.5,56.7,60c4-1.8,8-3.7,11.8-6.2
				c24.1-15.1,45.3-40.4,47.6-68.9c0.9-16.2-5.9-31.3-19.8-40c-21.1-14.3-54.4-15.1-76.1-1.7C276.7,388,268.2,396.1,265,405.2z
				 M266.7,415.3c0.8,1,4.5,0.9,2.4,3l-3,6.1l-0.3-0.1C265.5,421,266,418.1,266.7,415.3z M266.8,431.8c2.2-4.4,3.9-9,6.4-13.1
				c1.4,0.1,2.5,1.1,3.6,1.6c-2.6,6.5-5.2,13-8,19.5C267.8,437.4,267.1,434.7,266.8,431.8z M280.4,421.8c1.5,0.3,2.8,0.8,4.2,1.3
				l0,0.8l-6.6,19.8c-1.9-0.4-3.8-1-5.5-1.9C274.9,435.1,277.6,428.4,280.4,421.8z M282.2,389.6c1.3-2.1,3.1-0.5,4.5,0.2l-8.9,20
				c-1.8-0.5-3.4-1.5-4.9-2.4C276,401.4,278.7,395.2,282.2,389.6z M277,453.7l4.5,1.2c0,2.1-0.9,4.1-1.5,6.1
				c-1.5-1.4-2.4-3.5-3.7-5.3C276.3,455,276.6,454.3,277,453.7z M289.7,391.2c1.3,0.4,2.9,0.6,4,1.4c-1.9,7-4.4,13.8-6.9,20.6
				c-2-0.4-3.9-1.2-5.5-2.1C284.2,404.5,286.5,397.7,289.7,391.2z M287.9,424.8c1.4-0.3,3.2,0.1,4.3,0.9c-1.4,7-3.4,13.7-5.1,20.6
				c-1.8,0.2-3.6-0.6-5.2-1.2C283.6,438.1,285.9,431.5,287.9,424.8z M285.1,456.2c1.6-0.1,3.4,0.4,4.9,0.9
				c-0.6,4.5-1.7,8.8-2.5,13.2l-0.4,0l-4.2-5C283.4,462.2,284.2,459.2,285.1,456.2z M284.9,328.3c2.9-1.9,7-3.2,10.3-1.6
				c2.8,1.2,5.2,3.6,6.1,6.4c1.1,3.5,0.1,7.1-1.9,9.8c-2.4,3.2-6.5,3.9-10.4,3.1c-3.4-1.2-6.7-4.5-7.4-8.2
				C280.9,334,282.6,331,284.9,328.3z M294.2,458.1l4.4,0.6l0,2.1c-1.1,5.9-1.5,12.1-2.8,17.9c-1.7-1.4-3.7-3-5-4.7l3-15.4
				L294.2,458.1z M290.5,359.8c17.8-9.3,42.9-9.5,60.8-0.4c0.8,0.3,1.9,1.2,2.6,0.1l-2.3-3.6c-12.7-12.3-33.7-15.1-49.6-7.6
				c-4.6,2.6-10.1,4.6-12.8,9.8C288.8,359,289.2,360.3,290.5,359.8z M295.8,426.6l0.4-0.3c1.4,0.9,5-0.3,4.1,2.4l-3.6,19.6
				c-1.9,0-3.9-0.6-5.7-1C292.5,440.4,294,433.4,295.8,426.6z M296.9,393.9c1.1,0.1,2.6,0.2,3.7,0.9c-1.5,7-3.4,14-5,21
				c-1.7,0.1-3.4-0.6-4.9-1.1C292.6,407.6,294.7,400.7,296.9,393.9z M302,459.5c1.6,0.3,3.3-0.2,4.9,0.3c-0.4,7-0.7,14.3-1.7,21.1
				c-2.1,0-4.2-0.3-6.1-0.7C299.8,473.2,300.6,466.2,302,459.5z M304,395.9c1.1-0.6,2.3,0.3,3.6,0.2l0.5,0.4
				c-0.7,7.3-2.3,14.1-3.2,21.3c-2,0.1-3.7-0.4-5.5-0.9C300.6,409.7,302.5,402.9,304,395.9z M303.6,428c1.5-0.5,3.1,0.2,4.7,0.3
				c-0.3,7.1-1.4,14.2-2.1,21.3c-1.9,0.2-3.9-0.2-5.7-0.6C301.2,442,302.3,435,303.6,428z M310.7,460.2c1.5-0.1,3.2,0,4.7,0.3
				l-0.7,20.9c-1.9,0.3-3.9,0.2-5.6-0.3L310.7,460.2z M311.5,428.9c1.3-0.6,2.8-0.1,4.1-0.1l0.3,0.4l-0.6,12.8h-0.2
				c0.1,2.5,0,5.7-0.2,8.4c-1.5,0-3.5,0.1-5.2-0.2C310.1,443.1,311.1,436.1,311.5,428.9z M311.9,396.9c1.5-0.4,2.9,0.1,4.2,0.4
				c0.1,7.5-1.1,14-1.1,21.5l-0.3,0.3l-5.5-0.6C310.1,411.2,310.7,404,311.9,396.9z M319,460.6c1.5-0.6,3,0.1,4.7-0.2l0.2,0.4
				l0.5,20.6l-0.3,0.4c-1.8-0.1-3.9,0.3-5.6-0.2L319,460.6z M319.4,429.1c1.5,0.2,3.3-0.5,4.8,0l0.6,21.3c-1.9,0.5-3.8,0.3-5.8,0.2
				l-0.2-0.4L319.4,429.1z M319.2,397.4c1.3-0.8,2.6,0,4.3-0.3l0.4,1c0.2,6.6,0.7,13.9,0.5,20.8c-1.9,0.1-3.9,0.5-5.7-0.2
				L319.2,397.4z M331.9,460l0.3,0.4l1.6,20.7c-1.8,0.4-3.6,0.5-5.6,0.5c-0.7-7.1-0.8-14.3-0.9-21.4L331.9,460z M327.7,396.8
				c1.2,0.1,2.4-0.4,3.4,0c1.3,7,2,14.1,2.8,21.4l-0.4,0.4c-1.8,0.1-3.7,0.5-5.3,0.2c-0.6-7.1-0.8-14.5-1.4-21.5L327.7,396.8z
				 M332.1,428.5l0.6,0.6l2,20.4c-1.5,1.2-4.2,0.5-5.9,0.7c-0.5-7.2-1.1-14.7-1-21.5L332.1,428.5z M335.9,395.7l2.7-0.3
				c1.5,7.1,3.6,14.1,4.6,21.3c-1.6,0.7-3.4,0.9-5.3,1c-1.6-7-2.1-14.4-3.5-21.5L335.9,395.7z M335.7,459.9c1.4-0.6,3.2-0.6,4.8-0.6
				l3,20.7l-0.3,0.4c-1.7,0.4-3.6,0.4-5.4,0.6C337.1,473.9,336.2,466.9,335.7,459.9z M337.9,427.5l2.6-0.3c1.5,7,2.9,14,3.9,21.2
				c-1.8,0.5-3.7,0.6-5.5,1c-1.4-7-2-14.2-2.9-21.4L337.9,427.5z M344.1,328.8c2.6-2.4,6.6-3.1,10.1-2.1c3.7,0.7,6.1,4.5,6.9,7.9
				c0.5,3-0.6,5.7-2.2,7.9c-2.7,3-6.6,4.8-10.5,3.6c-3.7-0.6-6.6-4.4-7.5-7.8C340.3,334.6,341.6,331.4,344.1,328.8z M343.1,394
				l3.2-0.7c2.6,6.6,4.5,13.5,6.8,20.4l-0.3,0.5c-1.8,0.4-3.4,1.3-5.4,1.5c-1.8-7.1-3.9-14-5.3-21.2L343.1,394z M344.5,458.4
				l4.3-0.7l0.4,0.5l3.3,16.2l-5,4.8l-0.4-0.6c-1-6.6-2-13.2-3.1-19.7L344.5,458.4z M348.3,425.7c2,6.8,3.8,13.8,5.4,20.8
				c-1.6,0.6-3.3,1-5.1,1.3c-1.9-6.6-2.9-13.5-4.5-20.2l0.1-0.9L348.3,425.7z M353.3,390.7c3.1,6.5,5.7,13.3,8.5,19.9
				c-1.5,1.1-3.2,1.6-4.9,2.1c-2.6-6.7-5-13.5-7.4-20.4C350.4,391.3,352,391.1,353.3,390.7z M356.9,456c1.2,3.1,2.1,6.6,2.9,10
				c-1.2,1.9-2.7,3.7-4.4,5.3c-1.4-4.6-2.3-9.4-3.1-14.2L356.9,456z M352.1,424.4c1.3-0.3,2.6-0.9,4-1.1c2.7,6.7,5,13.5,6.9,20.5
				c-1.7,0.7-3.5,1.2-5.4,1.6c-2.1-6.6-4-13.3-5.8-20.1L352.1,424.4z M358.6,387.9c1.1-0.3,1.8,0.8,2.7,1.4
				c3.2,5.7,6.6,11.3,9.2,17.3l-4.8,2.5c-3.3-6.4-6.1-13.1-9.3-19.5C356.5,388.4,357.9,388.4,358.6,387.9z M358.4,373.5
				c1.1,2.7,4,2.8,6.3,3.7c27.8,9.6,42.5,38.1,48.7,64.1c2.7,9.3,2.3,20.2,11.1,26.5c2.8,2.6,6.6,2.8,9.9,4c1.2,1.1,0.6,2.9,1.2,4.1
				c1.1,4.9,6.1,9.3,10.9,10.5c6,1.2,12.8,0.2,17.3-4.1c3.3-0.1,6.2,2.2,9.5,2.1c2.5-0.1,4.9,0.1,7.2-0.8c7.9-3.9,12.7-12.5,12-21.7
				c-1.4-36.7-33.5-65.5-64.8-79c-19.3-7.2-38.7-12.9-60.5-13.9c-2.8,0.1-6.6-1.5-8.3,1.7C358.7,371.7,358.1,372.5,358.4,373.5z
				 M361.1,421.4c0.9-0.4,1.8-0.8,2.8-0.8c2.9,6.5,5.5,13.2,8.2,19.7c-1.4,1.2-3.5,1.7-5.3,2.3c-2.7-6.7-5.1-13.5-7.3-20.4
				L361.1,421.4z M365.1,453.7c0.7,0.9,1.2,2.1,1.2,3.5l-3.5,5.2l-0.4,0c-0.6-2.5-1.5-4.8-2-7.4L365.1,453.7z M366.9,419.2
				c1.2-0.6,2.5-1.3,3.9-1.6l6.1,12.3c0,2.8-0.7,5.6-1.7,8.1C372.1,431.9,369.4,425.5,366.9,419.2z M376.4,414.5
				c1.3,2.4,1.2,5.2,1,8.1c-1.3-2.1-2.5-4.4-3.5-6.8L376.4,414.5z M376.2,387.5l1.9,2.5c5.9,7.7,9,16.6,11.1,25.9
				c3.3,12.3,0.4,25.6-2.8,36.9c-1.1,3.4-2.8,6.6-3.5,10.2c-0.5,3.6,1.7,6.4,4.3,8.3c1.6,1.3,5.7,1,4.7,4.3c-0.4,3.7,2,7,4.7,9
				c2.7,1.4,6.5,1.2,9.2,0c6.7-3.6,11-10.2,12.5-17.2c-3-3.7-5-8.2-5.9-13c-0.6-1.8-0.6-3.4-1.2-5.3c-3.4-16.6-8.7-32.4-18.9-46.2
				C387.4,397,382.9,390.9,376.2,387.5z M387.1,386.3c0.1,0.9,1.2,1.3,1.8,1.8c11.2,10.1,19,23.3,24.2,36.9
				c1.5,3.3,1.9,7.3,3.4,10.3c0.5,0.4,1.4,0.6,2.1,0.3c1.1-0.6,1.1-2,1.4-3.2c2.8-3.9,5-8.2,9.5-10.5c1.2-1.8-0.2-3.6,0.6-5.6
				c0.4-1.1,1.4-2.1,1-3.4c-11.9-12.1-26.1-22.1-41-28.8l-1.8,0C387.2,384.5,387.3,385.5,387.1,386.3z M389.4,461.5
				c0.4,2.4,3,3.3,4.6,4.5c-0.1,2.6,0.6,5.1,2.2,7.1c1.3,0.7,2.5,1.8,4.2,1.6c3-0.1,5-3.1,5.9-5.7l0.5-11.3
				c-0.4-11.6-2.9-22.3-7-32.3c-0.7-1.3-1.3-3.2-2.9-3.7c-0.8-0.5-2-0.3-2.6,0.5c-0.4,1-0.3,2.4,0.1,3.4c-0.2,9.9-0.6,20-3.5,29
				C390.4,457,388.7,458.7,389.4,461.5z M394.8,456.4c1.9-7.4,3.3-14.8,3.5-22.6l0.3,0c3.8,10.5,5.2,22.6,4,34.3
				c-0.2,1.1-1.3,1.9-2.1,2.3c-1.3,0.4-2.2-0.6-2.7-1.5c-1.2-2.5,1.3-4.6-1.3-6.5c-0.8-0.9-2.5-0.6-2.6-2.1
				C393.5,458.6,394.7,457.7,394.8,456.4z M393.6,381.5c13.8,6.2,27.3,15,38.3,26l1.4,0.1c3.2-1.4,5.7-4.5,9.3-4.8
				c1.8-0.6,3.9,0.7,5.1-1.3c0.4-0.8,0.3-1.9-0.1-2.7c-10.2-6.9-21.3-11.9-32.7-15.9c-6.8-1.9-13.6-4.2-20.8-4.7
				C392.8,378.7,392.5,380.7,393.6,381.5z M400.2,394.2c9.7,4.8,18.6,12.2,26.2,19.7c0,2.3-0.9,4.2-0.7,6.5
				c-2.6,1.7-5.2,5.1-7.5,7.2C413.7,415.9,408.2,404.5,400.2,394.2z M411.7,386.1c10.2,3.1,20,7.2,29.1,13.3v0.3
				c-2.9,0.3-5.1,2.6-7.6,3.6c-6.9-6.5-14.9-12.2-22.7-17.2L411.7,386.1z M423.9,440.7c-1.8,4.5-1,10.5,1.6,14.5
				c3.7,5.3,9.7,7.8,16.3,7.4c0.9-0.2,1.7-1,1.6-2c-1.7-5.4-2.5-11.9-1.7-17.9c0.4-3.5,2-6.6,2.8-9.9c-0.3-1-0.8-1.8-1.9-2.1
				c-5.3-1-10.7,0-14.6,3.5C426.3,436,424.8,438.3,423.9,440.7z M432.9,435.2c2.1-0.8,4.3-1.7,6.8-1.4c-1.1,5.8-3.1,11.3-1.9,17.7
				c0,2.5,0.9,4.6,1.1,7c-3.2,0.7-6.2-0.9-8.6-2.9c-2.9-2.9-4.8-6.8-4.1-11C426.7,440.7,429.5,437.4,432.9,435.2z M437.8,422
				c1.9,3.7,5.4,6.6,9.7,6.2c1.7-0.4,3.9-1,4.4-2.9c-1.2-2.1-3.5,0.3-5.6-0.4c-3.1-0.3-4.9-3.2-5.7-5.9c-0.4-1.8,1-3.3,2.1-4.7
				c0.4-0.8,1.4-0.1,1.6-1.1c5.5-3,12.4-0.8,16.9,3.1c2.6,1.7,4.1,4.3,5.8,6.7c-3.4,1.1-6.9,1.9-9.8,4c-9,6.4-12.8,17.3-10.3,28.3
				c1.1,4.4,4.6,8.6,9.1,10c5.6,1.3,10.9-1.9,14.5-6.3c6-7.5,6.4-18.8,4.4-28.2c-0.3-1-0.8-1.9-1-3c-2.2-6.3-7-12-12.7-15.8
				c-5.1-3.9-12.6-5.4-18.6-2.5C438.6,412.1,436,417,437.8,422z M440.8,475.7c0.5,2.8,3.4,4.8,5.9,5.5c5.2,1.2,9.9-0.9,13.7-4
				c0.8-1.5,2.7-2.9,2.8-4.8c-0.3-0.5-0.7-1.2-1.3-1.4c-4.9,0.3-9.5-0.9-13.3-3.7c-1.8-1.7-3.5,0.4-5.1,1.1
				C441.7,470.3,440.5,472.8,440.8,475.7z M446.9,471.2c2.9,1.8,6.1,3.2,9.7,3.5l0,0.4c-2.8,2.3-7.3,3.1-10.6,1.5
				c-0.6-0.4-0.8-1-1.1-1.7C444.9,473.4,445.7,471.9,446.9,471.2z M459.2,430.1c3.1-1.8,6.6-2.6,10.2-3c1.4,1.9,1.6,4.4,2.4,6.5
				c1.8,10.3,0,21.9-9.2,27.5c-2.8,1.7-6.4,0.5-8.8-1.3c-4.6-4.8-4.9-13.3-2.6-19.2C452.9,436.4,455.3,432.5,459.2,430.1z
				 M467.8,474.7c2.2,2.5,5.1,3.9,8.6,3.8c4.5-0.3,8.3-4.6,9.6-8.6c2.2-7.2,1.5-16-3.2-21.8c-0.8-0.5-1.8-0.1-2.3,0.6
				c-1.8,8.2-6.8,16.7-14,21.2C465.9,471.7,467.3,473.1,467.8,474.7z M470.9,471.2c5.5-3.4,8.9-9.4,10.9-15.3c0.2-0.2,0.5-1,0.9-0.7
				c2.3,5.6,1.6,12.9-2.5,17.3c-1.6,1.5-4,2.5-6.3,1.8C472.5,474,470.9,472.7,470.9,471.2z"/>
		</g>
	</g>
	<g>
		<path d="M628.3,149.9v87.3h-17.6l1.3,2.1h18.4v-90.4c0-13.5,2.9-18.7,11.7-20.6l1.6-2.2C631.7,128.1,628.3,133.3,628.3,149.9"/>
		<polyline points="618.2,205 618,199.9 581.9,130.2 593,122.5 591.5,120.9 579.3,129.2 618.2,205 		"/>
		<polyline points="578.2,232.6 576.1,232.6 579.6,237.2 536.7,237.2 538.8,239.3 583.3,239.3 578.2,232.6 		"/>
		<polyline points="475.5,106.6 477.5,108.7 487.1,108.7 509.2,90.9 507.9,89.2 486.3,106.6 475.5,106.6 		"/>
		<path d="M505.7,122.7v1.1c15.6,9.3,24.8,29.5,24.8,54.1c0,35.4-20.7,60-50.3,60c-10.1,0-20.5-3.1-27.3-7.9v0.4
			c9,7,18,10.1,28.6,9.7c15.1-0.6,24.9-5.6,34.5-15.2c11.7-11.7,16.7-28.8,16.7-47.5C532.6,151.9,522.4,130.8,505.7,122.7"/>
		<path d="M392.4,180.4c16.7-6.8,25.7-17.4,25.7-30.5c0-7.9-3.2-15.4-9-20.5c5.2,7.5,7,12.2,7,18.7c0,9.7-4.8,18.7-13.5,24.6
			c-3.2,2.3-6.8,3.9-13.5,6.5c9,24.4,21.2,44.8,37.3,54.5c-11.5,3.1-24.5,9.7-34.2,16.2l1.8,1.4c13.5-8.4,22.2-13.1,36.9-16.9
			C413,223.8,399.9,203.4,392.4,180.4"/>
		<path d="M321.1,192.4l0.9,2c5.9-2.1,10-3.1,13.2-3.8l0-2.2C335.2,188.4,326.2,190.3,321.1,192.4"/>
		<path d="M378.4,181.6c0,0-14,3.7-22.8,4.6v37.3l10.2,13.8l-40.3,0l2.1,2.1h42.3l-12.1-16.6l0-34.3c8-1.4,21.3-4.6,21.3-4.6
			L378.4,181.6"/>
		<polyline points="170.9,132 179.6,121.7 177.6,120.9 168.5,131.5 183.8,170.2 185.8,169.5 170.9,132 		"/>
		<path d="M190.9,182.6l1.9,0c2.2,0,10.3,1.2,15.5,1.7c-4.8-8-8.7-16.9-9.8-21.7L196,161c1.4,6.5,3.6,11.8,8.4,20.6
			c-4.1-0.5-6.2-1-9.8-1.2c-4.2-0.3-5.6,0.3-6.6,0.6l15.1,42.6l13.2,13.5h-44.2l2.1,2.1l47,0l-16.3-16.9L190.9,182.6"/>
		<path d="M250.7,132.2h-9.4c-8.1,0-14,2.3-16.7,6.9c-1.6,2.5-2.1,5.7-2.6,11.5h2.1c1.9-13.3,2.5-17,27.4-16.3v-2.1H250.7"/>
		<path d="M291.6,138.7c-2.5-5.2-6.3-6.6-17.4-6.6c-1.3,0-1.3,0-3.8,0.2v91.6l13.5,13.4l-44.8,0l2.1,2.1H289l-16.5-16.6v-88.3
			C288,134.4,289,136.1,291.6,138.7"/>
		<path d="M49.9,187c15.3,0,22.4-0.7,30.2-2.9c14.9-4.1,23.4-15.1,23.4-30.7c0-11.1-4.9-20.8-12.1-24.2c7.5,8.8,9.9,14.4,9.9,23.9
			c0,21.6-14.4,31.8-44.4,31.8c-5.7,0-11.3-0.2-16-0.6v41l10.4,11.9l-40.3,0l2.1,2.1h43.4L43,224.2v-37.4
			C45.9,187,47.4,187,49.9,187"/>
		<path d="M18.3,184.3L18.3,184.3l-0.7,0.1c-5.6,0-9,0.7-13.6,3.4l0.7,1.6c3.6-1.8,9-2.9,13.6-2.7v0H21v-2.4H18.3"/>
		<path d="M50.3,133.5h-9.4v43.8H43v-41.7l9.1,0c11.9,0,17.6,2.2,21.9,8.1C69.7,135.5,65.2,133.5,50.3,133.5"/>
		<path d="M128.6,214.7c0-6.1,2.2-14.2,6.8-24.4l1.7-1.5l-2.3-3.8c0,0-1.8,4.2-2.1,5.1c0,0.1,0,0.1-0.1,0.2
			c-4.6,11.4-6.6,18.8-6.6,24.8c0,7.4,2.1,10.5,11.6,22.2H92.6l2.1,2.1h47.7C130.7,224.8,128.6,222.4,128.6,214.7"/>
		<path d="M170.8,191.8c0,0-13,12.6-18.5,22.5l2,0.7c9.4-13.9,17.6-20,17.6-20L170.8,191.8"/>
		<path d="M478.4,133.2c5.7,0,12.6,2.4,17.1,6.5c-2.6-5-11.6-8.6-17.1-8.6c-9.1,0-14.7,5.1-18.9,13.2c-4.4,8.9-6.7,22.2-6.7,37.3
			c0,14,1.4,32.5,17.1,43.2l0.5-0.7c0,0-5.2-3.2-10-11c-3.7-7.5-5.5-17.8-5.5-31.4c0-14.7,2.3-27.7,6.5-36.3
			C465.1,137.9,470.1,133.2,478.4,133.2"/>
		<line x1="568.9" y1="223.3" x2="568.9" y2="223.3"/>
		<path d="M375.6,129.9c-2.8-0.6-6.1-0.9-9.8-0.9c-4.7,0-7,0.4-10.3,1.3l0,47.1h2.1l0-45.3c1.1-0.2,1.9-0.5,2.8-0.6
			c1.6-0.3,3-0.5,5.5-0.5c2.2,0,4.3,0.1,6.2,0.4c1.6,0.2,3.1,0.5,4.5,0.8c6.2,1.5,9.9,4.4,12.1,7.4C386.2,134,380.4,131,375.6,129.9
			"/>
		<path d="M576.4,230.6c-5.1-3.2-8.2-9.6-8.6-16c-0.7-4.6-0.9-11.4-0.9-24.1V147h-2.1v43.5c0,20.1,0.5,26,2.8,31.2
			c0.2,0.4,0.4,0.8,0.6,1.2c0.1,0.1,0.1,0.2,0.2,0.4c0.1,0.2,0.2,0.3,0.3,0.5c0.1,0.1,0.1,0.2,0.2,0.3v0c1.7,3,4.1,5.2,7.4,6.9
			L576.4,230.6"/>
		<path d="M130.7,164.9c-2.2-2.1-8.3-7.9-9.6-9c-0.3,0.8-0.7,1.6-1.1,2.2c1.7,1.1,6.2,5.5,9.6,9L130.7,164.9"/>
		<path d="M140.7,173.3l12.1-32.1l-2-1l-1.9,5.1l0,0l-10.7,28.5c2.9,2.5,6.7,6.8,9.9,11.1c1,1.4,2,2.7,2.9,4
			c0.2,0.3,0.4,0.5,0.6,0.8c0.9,1.3,2.2,3.2,2.9,4.1l1.7-1.5C155.2,191.1,144.6,175.8,140.7,173.3"/>
		<path d="M312.9,124.7l-0.9,1.5c-4.6,7.9-8.9,15.4-11.7,24.3l1.5,1c2.8-9,7.2-16.5,11.8-24.5l0.8-1.3L312.9,124.7"/>
		<polyline points="506.5,85.9 484.2,103.1 474.6,103.1 487.9,85.9 506.5,85.9 		"/>
		<path d="M247.8,129.1c-15.4-1.8-29.7,0.8-30.6,19.6h-1.1c-2.9-9.3-7-19.8-12.3-28l106,0c-5.2,9.1-9.8,17-12.5,26.9l-0.6-0.5
			c-1.1-5.2-2.6-11.6-6.9-15.1c-3.2-2.6-8.7-3.7-15.2-3.7c-2.7,0-9,0.9-9,0.9l-0.1,94.2l10.3,10.4h-41.1l13-11.1L247.8,129.1"/>
		<path d="M397.9,209c-6.8-10.5-12.2-21.2-16.2-32.3c9-2.3,16.1-6.1,21.2-11.3c5.2-5.2,7.8-11.2,7.8-17.9c0-8.3-3.9-15.1-11.9-20.4
			c-21.2-14.4-53.6-8.1-74.2,3.9l0.7,0.3c2.8,1.1,5.5,2.5,8.2,4.1l0,42.9c-3.4,0.4-8.2,0.2-11.5,0c-0.9,3.5-2.7,6.8-3.2,10.4
			c4-1.5,10.3-2.5,14.7-2.6l0,36.5L322,233.7h38.1l-9.4-10.4v-40.2c7-1.3,14.2-1.6,21.1-3.6c0.2,0.5,0.4,0.9,0.4,1l3.4,7.9l0,0
			c6.6,15.7,11.2,33,14.5,55.6l0.4,2.8l1.3-0.9c8.2-5.4,16.7-9.6,25.2-12.6l1.3-0.4C411.5,227.4,404.7,219.4,397.9,209 M364,174
			L364,174c-5.6,1.3-12,1.7-13.4,1.7v-47c4.2-2.3,9.2-3.4,15.3-3.4c7.5,0,13.8,2.1,18.8,6.3c4.9,4.2,7.4,9.6,7.4,16
			c0,7.2-2.8,13.1-8.2,17.6C377.6,170.4,371.4,172.4,364,174z"/>
	</g>
	<g>
		<g>
			<polyline points="18.4,182 18.4,186.3 18.4,182 			"/>
			<path d="M82.9,128c-18.3-11.1-54.1-6.6-75.3-7.5l11,11.3V175c-8.1,0-14.5,2.4-18.6,9.9l0.9,1.3c4.9-4,11.6-5,17.7-4.3v41.5
				l-11,10.3h36.5l-8-9.2v-42.7l11.2,0.1c13.5,0,23.3-1,29.5-3.1c6.2-2,11-5.4,14.4-10c3.4-4.7,5.2-10.1,5.2-16.4
				C96.3,141.9,92,133.6,82.9,128 M68.9,169.2c-5.2,3.2-10.8,5-21.3,5.1l0,0l-11.6,0v-44.2c4-0.2,7.7-0.4,10.5-0.4
				c10.7,0,18.5,1.9,23.3,5.6c4.8,3.7,7.2,9.6,7.2,17.8C77,160.5,74.3,165.8,68.9,169.2z"/>
		</g>
	</g>
	<g>
		<path d="M209,233.7l-11.1-10.4l-15.6-43.2c2.6-1.8,6.7-2.6,12.3-2.6c0.8,0,2,0.1,3.7,0.2c-3.2-5.3-5.5-11.2-7.1-17.9
			c-1.5,2-3.7,3.5-5.8,5l-3.7,2.7l-3.5,1.9l-14.5-38.3l9.4-10.4h-41.1l9.6,10.1L126.8,170c-3.7-2.6-7-5.9-10.3-9.1
			c-1.8,5.2-4.3,10.2-7.5,15c5.9,0.6,10.4,2.2,13.5,4.8c-3.5,11.8-8,24.8-14.9,35.1c-4.9,7.3-10.8,13.4-19.2,17.7h41.9
			c-0.7-0.7-6-7.6-7.2-10.8c-0.9-2.3-1.7-4.9-1.7-8.2c0-3.2,0.8-7.2,2.4-12l2.9-9c1.2-3.6,2.1-6.4,2.9-8.2l4.1,4.2l3.7,4.9l0,0
			c4.1,4.9,7,9.2,10.5,14.7l1.4,2.2c4.6-7.7,10.9-15.4,18-21.2l11.8,33l-12,10.5H209 M149.3,196.2c-1.9-2.2-3.4-4.7-4.9-7
			c-3.1-4.5-7.1-9.1-11.6-13.6l14.9-40.3l16.3,45.8l0,0C160.6,184.2,150.3,195.1,149.3,196.2z"/>
		<path d="M623.4,233.6l0-77.2c0.1-12.9,0.5-16.2,2.3-21.4c2.2-6.6,4.7-9.1,15.1-14.5h-40.2c7.5,3.8,11.6,7.3,13.6,12.5
			c1.6,4.3,1.6,4.3,1.6,22.4V212l-42.6-82.8l12.5-8.6h-44.5l11.8,9.8v70.2c0,21.2-3.6,28-17.7,33H579l-0.9-1.2
			c-7.9-2.3-12.2-5.7-14.9-11.5c-2.5-5.4-3.1-11.3-3.1-30.9v-50.6l48.5,94.2H623.4"/>
		<path d="M524.6,179.5c0-36.6-18.1-59.8-47-59.8c-12.8,0-25.3,5.2-33.6,14c-9.7,10.1-14.7,25-14.7,43.5c0,19,5.4,33.8,16.3,44.4
			c8.6,8.4,20.7,13.3,32.9,13.3C506.1,234.8,524.6,212.8,524.6,179.5 M454.4,213.6c-4.1-8.3-6.1-19.6-6.1-34.3
			c0-16.2,2.5-29.5,7.2-38.8c4.3-8.3,12.6-13.3,21.9-13.3c9.7,0,18.3,5.4,22.3,13.8c4,8.3,5.6,19.2,5.6,36.8
			c0,32.5-9.7,49.6-28.2,49.6C467.5,227.5,458.5,221.9,454.4,213.6z"/>
		<path d="M639.8,227.7c0-7.3,5.9-13.2,13.2-13.2c7.2,0,13.2,5.9,13.2,13.2c0,7.3-5.9,13.2-13.2,13.2
			C645.7,240.9,639.8,235,639.8,227.7 M663.7,227.7c0-5.9-4.7-10.7-10.7-10.7c-5.9,0-10.7,4.8-10.7,10.7c0,6,4.8,10.7,10.7,10.7
			C658.9,238.4,663.7,233.7,663.7,227.7 M659.6,234.9h-3.3l-3.1-6h-2.8v6h-2.8v-14.3h6.9c1.2,0,2.8,0,3.9,0.7
			c1.3,0.8,1.7,2.2,1.7,3.7c0,2.6-1.4,3.6-3.9,3.8L659.6,234.9z M654.5,226.8c1.6,0,2.7-0.3,2.7-2.1c0-1.9-2-1.9-3.4-1.9h-3.5v4
			H654.5z"/>
	</g>
</g>
</svg>
